<svg width="40" height="40" viewBox="0 0 40 40" fill="none" xmlns="http://www.w3.org/2000/svg">
<g clip-path="url(#clip0_1_338)">
<path d="M11.9284 8.70312H6.19273L1.17188 18.7448H38.8281L33.8073 8.70312H28.0716" stroke="#2E7D32" stroke-width="2" stroke-miterlimit="10" stroke-linecap="round" stroke-linejoin="round"/>
<path d="M11.2135 13.7241H28.7865" stroke="#2E7D32" stroke-width="2" stroke-miterlimit="10" stroke-linecap="round" stroke-linejoin="round"/>
<path d="M38.8281 18.7446H1.17188V38.828H38.8281V18.7446Z" stroke="#2E7D32" stroke-width="2" stroke-miterlimit="10" stroke-linecap="round" stroke-linejoin="round"/>
<path d="M32.552 25.021H7.44788V32.5522H32.552V25.021Z" stroke="#2E7D32" stroke-width="2" stroke-miterlimit="10" stroke-linecap="round" stroke-linejoin="round"/>
<path d="M17.5605 13.724C14.9603 12.2146 11.2135 9.47133 11.2135 6.19273C11.2135 3.42125 13.4635 1.17188 16.2344 1.17188C17.7331 1.17188 19.0793 1.82961 20 2.87266C20.9207 1.82961 22.2669 1.17188 23.7656 1.17188C26.5365 1.17188 28.7865 3.42125 28.7865 6.19273C28.7865 9.47133 25.0397 12.2146 22.4395 13.724H17.5605Z" stroke="#2E7D32" stroke-width="2" stroke-miterlimit="10" stroke-linecap="round" stroke-linejoin="round"/>
</g>
<defs>
<clipPath id="clip0_1_338">
<rect width="40" height="40" fill="white"/>
</clipPath>
</defs>
</svg>
